<svg width="32" height="32" viewBox="0 0 32 32" fill="none" xmlns="http://www.w3.org/2000/svg">
<path d="M25.125 7.50995C26.125 5.7312 26.0525 4.7962 25.92 4.3962C25.862 4.20536 25.7468 4.03694 25.59 3.9137C25.4694 3.86075 25.3604 3.7845 25.2694 3.68932C25.1783 3.59415 25.107 3.48192 25.0594 3.35909C25.0119 3.23626 24.989 3.10524 24.9923 2.97357C24.9955 2.84189 25.0247 2.71215 25.0782 2.59179C25.1317 2.47144 25.2085 2.36284 25.3041 2.27223C25.3997 2.18163 25.5122 2.1108 25.6353 2.06382C25.7584 2.01684 25.8895 1.99463 26.0211 1.99847C26.1528 2.00231 26.2824 2.03212 26.4025 2.0862C26.7387 2.25739 27.0372 2.49427 27.2802 2.78284C27.5233 3.0714 27.706 3.40578 27.8175 3.7662C28.2375 5.0337 27.9188 6.62245 26.8675 8.48995C25.8675 10.2687 25.94 11.2049 26.0725 11.6049C26.1307 11.7953 26.2459 11.9633 26.4025 12.0862C26.5231 12.1391 26.6321 12.2154 26.7231 12.3106C26.8142 12.4057 26.8855 12.518 26.9331 12.6408C26.9806 12.7636 27.0034 12.8947 27.0002 13.0263C26.997 13.158 26.9678 13.2877 26.9143 13.4081C26.8608 13.5285 26.784 13.6371 26.6884 13.7277C26.5928 13.8183 26.4803 13.8891 26.3572 13.9361C26.2341 13.9831 26.103 14.0053 25.9714 14.0014C25.8397 13.9976 25.7101 13.9678 25.59 13.9137C25.2536 13.7427 24.955 13.5059 24.712 13.2173C24.4689 12.9287 24.2863 12.5942 24.175 12.2337C23.7587 10.9662 24.0775 9.37495 25.125 7.50995ZM19.175 12.2337C19.2863 12.5942 19.4689 12.9287 19.712 13.2173C19.955 13.5059 20.2536 13.7427 20.59 13.9137C20.7101 13.9678 20.8397 13.9976 20.9714 14.0014C21.103 14.0053 21.2341 13.9831 21.3572 13.9361C21.4803 13.8891 21.5928 13.8183 21.6884 13.7277C21.784 13.6371 21.8608 13.5285 21.9143 13.4081C21.9678 13.2877 21.997 13.158 22.0002 13.0263C22.0034 12.8947 21.9806 12.7636 21.9331 12.6408C21.8855 12.518 21.8142 12.4057 21.7231 12.3106C21.6321 12.2154 21.5231 12.1391 21.4025 12.0862C21.2459 11.9633 21.1307 11.7953 21.0725 11.6049C20.94 11.2049 20.8675 10.2687 21.8675 8.48995C22.9188 6.62245 23.2425 5.0337 22.8175 3.7662C22.706 3.40578 22.5233 3.0714 22.2802 2.78284C22.0372 2.49427 21.7387 2.25739 21.4025 2.0862C21.2824 2.03212 21.1528 2.00231 21.0211 1.99847C20.8895 1.99463 20.7584 2.01684 20.6353 2.06382C20.5122 2.1108 20.3997 2.18163 20.3041 2.27223C20.2085 2.36284 20.1317 2.47144 20.0782 2.59179C20.0247 2.71215 19.9955 2.84189 19.9923 2.97357C19.989 3.10524 20.0119 3.23626 20.0594 3.35909C20.107 3.48192 20.1783 3.59415 20.2694 3.68932C20.3604 3.7845 20.4694 3.86075 20.59 3.9137C20.7468 4.03694 20.862 4.20536 20.92 4.3962C21.0525 4.7962 21.125 5.7312 20.125 7.50995C19.0775 9.37495 18.7587 10.9662 19.1787 12.2337H19.175ZM26.7362 26.3274C26.8264 26.4243 26.8965 26.5381 26.9423 26.6622C26.9882 26.7864 27.009 26.9183 27.0034 27.0506C26.9979 27.1828 26.9662 27.3126 26.9101 27.4325C26.8541 27.5523 26.7748 27.6599 26.6769 27.7489C26.5789 27.8379 26.4643 27.9065 26.3396 27.9509C26.215 27.9953 26.0827 28.0145 25.9506 28.0074C25.8185 28.0003 25.689 27.967 25.5698 27.9095C25.4507 27.852 25.3441 27.7714 25.2563 27.6724L21.9212 23.9999H4C3.46957 23.9999 2.96086 23.7892 2.58579 23.4142C2.21071 23.0391 2 22.5304 2 21.9999V17.9999C2 17.4695 2.21071 16.9608 2.58579 16.5857C2.96086 16.2107 3.46957 15.9999 4 15.9999H14.6488L5.26 5.67245C5.16983 5.57559 5.09979 5.4618 5.05392 5.33767C5.00806 5.21354 4.98728 5.08155 4.99281 4.94933C4.99833 4.81711 5.03004 4.68731 5.0861 4.56744C5.14216 4.44757 5.22146 4.34002 5.31939 4.25102C5.41732 4.16202 5.53194 4.09335 5.65661 4.04897C5.78128 4.0046 5.91352 3.98541 6.04566 3.99252C6.1778 3.99963 6.30721 4.03289 6.4264 4.09038C6.54559 4.14788 6.65218 4.22846 6.74 4.32745L26.7362 26.3274ZM20.1025 21.9999L16.4662 17.9999H12V21.9999H20.1025ZM28 15.9999H22.315C22.0498 15.9999 21.7954 16.1053 21.6079 16.2928C21.4204 16.4804 21.315 16.7347 21.315 16.9999C21.315 17.2652 21.4204 17.5195 21.6079 17.7071C21.7954 17.8946 22.0498 17.9999 22.315 17.9999H28V21.9999H27.77C27.5048 21.9999 27.2504 22.1053 27.0629 22.2928C26.8754 22.4804 26.77 22.7347 26.77 22.9999C26.77 23.2652 26.8754 23.5195 27.0629 23.7071C27.2504 23.8946 27.5048 23.9999 27.77 23.9999H28C28.5304 23.9999 29.0391 23.7892 29.4142 23.4142C29.7893 23.0391 30 22.5304 30 21.9999V17.9999C30 17.4695 29.7893 16.9608 29.4142 16.5857C29.0391 16.2107 28.5304 15.9999 28 15.9999Z" fill="black"/>
</svg>
