<svg width="32" height="32" viewBox="0 0 32 32" fill="none" xmlns="http://www.w3.org/2000/svg">
<path d="M16 3C13.4288 3 10.9154 3.76244 8.77759 5.1909C6.63975 6.61935 4.97351 8.64968 3.98957 11.0251C3.00563 13.4006 2.74819 16.0144 3.2498 18.5362C3.75141 21.0579 4.98953 23.3743 6.80762 25.1924C8.6257 27.0105 10.9421 28.2486 13.4638 28.7502C15.9856 29.2518 18.5995 28.9944 20.9749 28.0104C23.3503 27.0265 25.3807 25.3603 26.8091 23.2224C28.2376 21.0846 29 18.5712 29 16C28.996 12.5534 27.6251 9.24911 25.188 6.812C22.7509 4.37488 19.4466 3.00397 16 3ZM26.9525 15H21.9738C21.75 10.4363 19.9925 7.20875 18.5513 5.3C20.7891 5.83739 22.8026 7.06171 24.3095 8.80127C25.8164 10.5408 26.741 12.7084 26.9538 15H26.9525ZM12.0288 17H19.9713C19.6825 22.2013 17.1925 25.3888 16 26.625C14.8063 25.3875 12.3175 22.2 12.0288 17ZM12.0288 15C12.3175 9.79875 14.8075 6.61125 16 5.375C17.1938 6.61625 19.6825 9.80375 19.9713 15H12.0288ZM18.5513 26.7C19.9925 24.7913 21.7463 21.5637 21.9738 17H26.9538C26.741 19.2916 25.8164 21.4592 24.3095 23.1987C22.8026 24.9383 20.7891 26.1626 18.5513 26.7Z" fill="black"/>
</svg>
