<svg width="32" height="32" viewBox="0 0 32 32" fill="none" xmlns="http://www.w3.org/2000/svg">
<path d="M28.99 16.5136C28.7288 23.2636 23.2613 28.7286 16.5138 28.9899C14.572 29.0655 12.6379 28.7051 10.8536 27.9351C9.06939 27.1651 7.48034 26.0052 6.20326 24.5404C4.92618 23.0757 3.99351 21.3435 3.4738 19.4709C2.95409 17.5984 2.86054 15.6333 3.20002 13.7199C3.21684 13.6303 3.25784 13.547 3.31857 13.479C3.3793 13.411 3.45746 13.361 3.54459 13.3342C3.63173 13.3074 3.72452 13.305 3.81295 13.3271C3.90137 13.3493 3.98205 13.3952 4.04627 13.4599L9.42127 18.8349C9.03664 19.5487 8.91178 20.3739 9.06804 21.1696C9.22429 21.9653 9.65197 22.682 10.278 23.1973C10.904 23.7127 11.6896 23.9947 12.5004 23.9951C13.3113 23.9956 14.0972 23.7145 14.7238 23.1999L22.3613 16.9699C22.8447 16.5704 23.2393 16.0744 23.5198 15.5135C23.8003 14.9526 23.9604 14.3393 23.9899 13.7128C24.0195 13.0864 23.9178 12.4608 23.6913 11.876C23.4649 11.2912 23.1187 10.7602 22.675 10.317C22.2313 9.87383 21.6999 9.52829 21.1149 9.30254C20.5298 9.07679 19.904 8.97582 19.2776 9.00611C18.6513 9.03639 18.0381 9.19726 17.4776 9.47839C16.917 9.75953 16.4214 10.1547 16.0225 10.6386L10.6475 17.2311L4.37502 10.9586C4.30107 10.8847 4.25213 10.7895 4.23509 10.6864C4.21805 10.5833 4.23376 10.4774 4.28002 10.3836C5.57281 7.68725 7.75563 5.51898 10.4606 4.24427C13.1656 2.96956 16.2273 2.66633 19.1298 3.38571C22.0322 4.10508 24.5979 5.80307 26.3945 8.19349C28.1911 10.5839 29.1086 13.5206 28.9925 16.5086L28.99 16.5136ZM15.1975 14.8186L11.3463 19.5411C11.1422 19.7826 11.0208 20.0831 11 20.3986C10.9896 20.6016 11.0199 20.8047 11.0892 20.9958C11.1584 21.1869 11.2652 21.3622 11.4032 21.5114C11.5413 21.6606 11.7077 21.7807 11.8929 21.8646C12.078 21.9485 12.2781 21.9945 12.4813 21.9999C12.836 22.006 13.1811 21.8844 13.4538 21.6574L18.1763 17.8061C17.4744 17.5877 16.8362 17.2016 16.3172 16.681C15.7982 16.1604 15.4138 15.5212 15.1975 14.8186ZM21.9875 13.7499C22.0391 13.2367 21.9307 12.7201 21.6771 12.2709C21.4235 11.8217 21.0372 11.462 20.5712 11.241C20.1051 11.02 19.5821 10.9486 19.0739 11.0365C18.5656 11.1244 18.097 11.3674 17.7323 11.7321C17.3676 12.0969 17.1246 12.5655 17.0366 13.0737C16.9487 13.582 17.0201 14.105 17.2411 14.571C17.4621 15.0371 17.8219 15.4234 18.271 15.677C18.7202 15.9305 19.2368 16.039 19.75 15.9874C20.3238 15.9297 20.86 15.6755 21.2678 15.2677C21.6756 14.8599 21.9299 14.3237 21.9875 13.7499Z" fill="black"/>
</svg>
