<svg width="32" height="32" viewBox="0 0 32 32" fill="none" xmlns="http://www.w3.org/2000/svg">
<path d="M16 3C13.4288 3 10.9154 3.76244 8.77759 5.1909C6.63975 6.61935 4.97351 8.64968 3.98957 11.0251C3.00563 13.4006 2.74819 16.0144 3.2498 18.5362C3.75141 21.0579 4.98953 23.3743 6.80762 25.1924C8.6257 27.0105 10.9421 28.2486 13.4638 28.7502C15.9856 29.2518 18.5995 28.9944 20.9749 28.0104C23.3503 27.0265 25.3807 25.3603 26.8091 23.2224C28.2376 21.0846 29 18.5712 29 16C28.9964 12.5533 27.6256 9.24882 25.1884 6.81163C22.7512 4.37445 19.4467 3.00364 16 3ZM20 19.5C20 19.6326 19.9473 19.7598 19.8536 19.8536C19.7598 19.9473 19.6326 20 19.5 20H12.5C12.3674 20 12.2402 19.9473 12.1465 19.8536C12.0527 19.7598 12 19.6326 12 19.5V12.5C12 12.3674 12.0527 12.2402 12.1465 12.1464C12.2402 12.0527 12.3674 12 12.5 12H19.5C19.6326 12 19.7598 12.0527 19.8536 12.1464C19.9473 12.2402 20 12.3674 20 12.5V19.5Z" fill="black"/>
</svg>
