<svg width="32" height="32" viewBox="0 0 32 32" fill="none" xmlns="http://www.w3.org/2000/svg">
<path d="M26 4H6C5.46957 4 4.96086 4.21071 4.58579 4.58579C4.21071 4.96086 4 5.46957 4 6V26C4 26.5304 4.21071 27.0391 4.58579 27.4142C4.96086 27.7893 5.46957 28 6 28H26C26.5304 28 27.0391 27.7893 27.4142 27.4142C27.7893 27.0391 28 26.5304 28 26V6C28 5.46957 27.7893 4.96086 27.4142 4.58579C27.0391 4.21071 26.5304 4 26 4ZM24.75 16.4575C23.1012 18.3325 21.5825 18.9937 20.2038 18.9937C18.3363 18.9937 16.7275 17.7925 15.4 16.8013C13 15.0088 11.4137 13.825 8.75 16.8612C8.66583 16.9677 8.56087 17.0559 8.44151 17.1205C8.32216 17.1851 8.1909 17.2248 8.05574 17.237C7.92057 17.2492 7.78433 17.2338 7.65531 17.1917C7.52629 17.1496 7.40719 17.0817 7.30526 16.9921C7.20333 16.9025 7.12071 16.7931 7.06243 16.6705C7.00415 16.5479 6.97143 16.4148 6.96626 16.2792C6.96109 16.1435 6.98358 16.0083 7.03236 15.8817C7.08114 15.755 7.15519 15.6396 7.25 15.5425C11.1312 11.1162 14.2925 13.4762 16.6 15.1987C19 16.9912 20.5863 18.175 23.25 15.1388C23.3342 15.0323 23.4391 14.9441 23.5585 14.8795C23.6778 14.8149 23.8091 14.7752 23.9443 14.763C24.0794 14.7508 24.2157 14.7662 24.3447 14.8083C24.4737 14.8504 24.5928 14.9183 24.6947 15.0079C24.7967 15.0975 24.8793 15.2069 24.9376 15.3295C24.9958 15.4521 25.0286 15.5852 25.0337 15.7208C25.0389 15.8564 25.0164 15.9917 24.9676 16.1183C24.9189 16.245 24.8448 16.3604 24.75 16.4575Z" fill="black"/>
</svg>
