<svg width="32" height="32" viewBox="0 0 32 32" fill="none" xmlns="http://www.w3.org/2000/svg">
<path d="M32 10.0288V21.9601C32.003 22.1383 31.9602 22.3143 31.8757 22.4712C31.7912 22.6281 31.6679 22.7607 31.5175 22.8563C31.3549 22.9547 31.1677 23.0047 30.9778 23.0004C30.7879 22.9962 30.603 22.938 30.445 22.8326L26.2225 20.0176C26.154 19.9719 26.0979 19.91 26.059 19.8374C26.0202 19.7647 25.9999 19.6837 26 19.6013V12.3988C26.0002 12.3167 26.0205 12.2359 26.0593 12.1635C26.0981 12.0911 26.1542 12.0294 26.2225 11.9838L30.445 9.16758C30.6285 9.04534 30.8472 8.98716 31.0672 9.00208C31.2871 9.017 31.496 9.10419 31.6612 9.25008C31.7699 9.3483 31.8563 9.46857 31.9147 9.60287C31.9732 9.73717 32.0022 9.8824 32 10.0288ZM6.74 4.32758C6.65218 4.22859 6.54559 4.14801 6.4264 4.09052C6.30721 4.03303 6.1778 3.99976 6.04566 3.99265C5.91352 3.98555 5.78128 4.00473 5.65661 4.04911C5.53194 4.09348 5.41732 4.16216 5.31939 4.25116C5.22146 4.34016 5.14216 4.44771 5.0861 4.56758C5.03004 4.68745 4.99833 4.81725 4.99281 4.94947C4.98728 5.08168 5.00806 5.21368 5.05392 5.33781C5.09979 5.46194 5.16983 5.57573 5.26 5.67258L6.46625 7.00008H4C3.46957 7.00008 2.96086 7.2108 2.58579 7.58587C2.21071 7.96094 2 8.46965 2 9.00008V23.0001C2 23.5305 2.21071 24.0392 2.58579 24.4143C2.96086 24.7894 3.46957 25.0001 4 25.0001H22.83L25.26 27.6726C25.3478 27.7716 25.4544 27.8522 25.5736 27.9096C25.6928 27.9671 25.8222 28.0004 25.9543 28.0075C26.0865 28.0146 26.2187 27.9954 26.3434 27.9511C26.4681 27.9067 26.5827 27.838 26.6806 27.749C26.7785 27.66 26.8578 27.5525 26.9139 27.4326C26.97 27.3127 27.0017 27.1829 27.0072 27.0507C27.0127 26.9185 26.9919 26.7865 26.9461 26.6624C26.9002 26.5382 26.8302 26.4244 26.74 26.3276L6.74 4.32758ZM23.125 19.3838C23.1926 19.4605 23.282 19.5145 23.3812 19.5388C23.4804 19.5631 23.5847 19.5564 23.68 19.5197C23.7753 19.4829 23.857 19.4178 23.9143 19.3332C23.9715 19.2486 24.0014 19.1485 24 19.0463V9.00008C24 8.46965 23.7893 7.96094 23.4142 7.58587C23.0391 7.2108 22.5304 7.00008 22 7.00008H13C12.9027 6.99912 12.8073 7.02655 12.7254 7.07901C12.6434 7.13148 12.5786 7.20671 12.5388 7.29547C12.499 7.38424 12.4859 7.48269 12.5013 7.57876C12.5166 7.67482 12.5596 7.76434 12.625 7.83633L23.125 19.3838Z" fill="black"/>
</svg>
